<svg width="121" height="121" viewBox="0 0 121 121" fill="none" xmlns="http://www.w3.org/2000/svg">
<path d="M60.375 120.75C93.7154 120.75 120.75 93.7288 120.75 60.375C120.75 27.0346 93.7154 0 60.375 0C27.0346 0 0 27.0346 0 60.375C0 93.7288 27.0346 120.75 60.375 120.75ZM92.3469 76.9043C92.3469 88.9659 85.5983 99.7529 75.4822 105.267C71.3633 107.508 66.6943 108.514 62.0252 108.514H48.1256C56.4707 102.396 62.0789 93.2324 63.6889 83.0223C75.2138 82.0429 85.7459 75.9115 92.3469 66.4259V76.9043ZM60.375 12.2494C70.3033 12.2494 79.5742 16.8245 85.6252 24.633C83.2102 23.6938 80.6342 23.2108 78.0447 23.2108C70.9071 23.2108 64.2256 26.9004 60.375 32.8977C56.511 26.9004 49.8429 23.2108 42.6918 23.2108C40.1024 23.2108 37.5264 23.6938 35.1248 24.633C41.1758 16.8245 50.4467 12.2494 60.375 12.2494ZM42.6918 30.1741C50.5272 30.1741 56.8867 36.4799 56.8867 44.2213V59.7578H63.8633V44.2213C63.8633 36.4799 70.2228 30.1741 78.0447 30.1741C85.7996 30.1741 92.3469 36.6141 92.3469 44.2213C92.3469 61.8643 78.0045 76.2067 60.375 76.2067C42.7455 76.2067 28.3897 61.8643 28.3897 44.2213C28.3897 36.6141 34.937 30.1741 42.6918 30.1741ZM28.3897 66.4259C34.9102 75.7907 45.2678 81.8819 56.6183 82.9821C54.1765 95.7682 44.0603 105.992 31.3816 108.514H28.3897V66.4259Z" fill="#015450"/>
<path d="M83.2772 45.8583V39.5256H76.9312C74.0063 39.5256 71.6182 41.9138 71.6182 44.8386V51.1847H77.9642C80.8891 51.1847 83.2772 48.7965 83.2772 45.8583Z" fill="#015450"/>
<path d="M42.7858 51.1847H49.1319V44.8386C49.1319 41.9138 46.7437 39.5256 43.8054 39.5256H37.4728V45.8583C37.4728 48.7965 39.8475 51.1847 42.7858 51.1847Z" fill="#015450"/>
</svg>
